<svg xmlns="http://www.w3.org/2000/svg" width="241" height="240" viewBox="0 0 241 240" fill="none"><path d="M83.1409 73.7066L108.191 58.2416C110.396 56.9966 110.396 54.4166 108.806 52.8416L87.8809 32.6065C87.4759 32.2015 86.8009 32.2015 86.3959 32.6065L84.4159 34.6015C81.8809 37.1515 81.8959 41.2615 84.4459 43.7965L92.6209 51.3416C94.0159 52.7216 93.7459 55.0316 92.0809 56.0666L82.3159 62.0516C79.2709 63.9266 78.3259 67.9316 80.2159 70.9766L81.6859 73.3616C81.9859 73.8566 82.6459 74.0066 83.1409 73.7066Z" fill="#E95557"></path><path d="M107.321 156.656C109.376 147.761 106.946 138.416 100.796 131.651L84.9709 113.711C76.1659 103.721 78.3409 88.2413 89.5609 81.0713L115.451 64.5263C117.116 63.4613 119.306 63.6563 120.761 64.9913C130.226 73.7213 163.181 105.191 161.711 137.696C161.711 137.696 161.756 188.171 112.046 207.056C104.741 209.831 97.3459 203.156 99.2659 195.581C106.136 168.371 107.336 156.641 107.336 156.641L107.321 156.656ZM113.801 78.9413C109.841 81.4463 102.176 86.3063 95.6359 90.4613C91.2559 93.2363 90.3709 99.2513 93.7609 103.181L110.306 122.306C119.786 132.731 123.551 147.131 120.371 160.871L117.596 173.036C116.396 178.316 122.621 182.006 126.731 178.466C144.161 163.421 168.596 127.256 117.626 79.3163C116.591 78.3413 115.016 78.1913 113.801 78.9563V78.9413Z" fill="#E95557"></path><rect x="6.65789" y="6.15789" width="227.684" height="227.684" rx="113.842" stroke="#E95557" stroke-width="12.3158"></rect></svg>