<?xml version="1.0" encoding="UTF-8"?>
<svg id="Decentralised_Governance" xmlns="http://www.w3.org/2000/svg" viewBox="0 0 64 64">
  <defs>
    <style>
      .cls-1 {
        fill: #262626;
      }

      .cls-2 {
        fill: #38ff9c;
      }
    </style>
  </defs>
  <circle class="cls-1" cx="32" cy="32" r="32"/>
  <path class="cls-2" d="M27.09,47.9c-.22,0-.45-.04-.67-.12-6.67-2.36-11.16-8.7-11.16-15.78s4.48-13.42,11.16-15.78c1.04-.37,2.18.18,2.55,1.22.37,1.04-.18,2.18-1.22,2.55-5.08,1.79-8.49,6.62-8.49,12.01s3.41,10.21,8.49,12.01c1.04.37,1.59,1.51,1.22,2.55-.29.82-1.06,1.33-1.89,1.33Z"/>
  <path class="cls-2" d="M32,26.09c-3.26,0-5.91,2.65-5.91,5.91s2.65,5.91,5.91,5.91,5.91-2.65,5.91-5.91-2.65-5.91-5.91-5.91Z"/>
  <path class="cls-2" d="M36.91,47.9c-.82,0-1.6-.51-1.89-1.33-.37-1.04.18-2.18,1.22-2.55,5.08-1.79,8.49-6.62,8.49-12.01s-3.41-10.21-8.49-12.01c-1.04-.37-1.59-1.51-1.22-2.55.37-1.04,1.51-1.59,2.55-1.22,6.67,2.36,11.15,8.7,11.15,15.78s-4.48,13.42-11.15,15.78c-.22.08-.45.12-.67.12Z"/>
  <path class="cls-2" d="M45.74,13.65c-.38,0-.75-.11-1.09-.33l-.04-.02c-7.55-5.1-17.69-5.1-25.23,0-.92.62-2.16.38-2.78-.54-.62-.92-.38-2.16.54-2.78,8.88-6,20.81-6,29.7,0,.91.62,1.17,1.87.56,2.78-.39.58-1.02.89-1.66.89Z"/>
  <path class="cls-2" d="M32,58.52c-5.21,0-10.41-1.5-14.85-4.5-.92-.62-1.16-1.86-.54-2.78.62-.91,1.86-1.15,2.78-.54,7.54,5.1,17.68,5.1,25.22,0,.9-.61,2.14-.4,2.77.49.63.88.46,2.1-.41,2.75-.03.02-.09.07-.13.09-4.43,2.99-9.63,4.49-14.83,4.49Z"/>
  <path class="cls-2" d="M11.64,47.72c-.66,0-1.31-.33-1.69-.92-5.36-8.39-5.07-16.02-3.88-20.94,1.29-5.33,3.88-8.68,3.98-8.82.68-.87,1.94-1.03,2.81-.35.87.68,1.02,1.93.35,2.8-.36.47-8.62,11.49.11,25.15.59.93.32,2.17-.61,2.76-.33.21-.71.31-1.07.31Z"/>
  <path class="cls-2" d="M52.32,47.72c.66,0,1.31-.33,1.69-.92,5.36-8.39,5.07-16.02,3.88-20.94-1.29-5.33-3.88-8.68-3.98-8.82-.68-.87-1.94-1.03-2.81-.35-.87.68-1.02,1.93-.35,2.8.36.47,8.62,11.49-.11,25.15-.59.93-.32,2.17.61,2.76.33.21.71.31,1.07.31Z"/>
</svg>